<svg id="Layer_1" data-name="Layer 1" xmlns="http://www.w3.org/2000/svg" viewBox="0 0 512 512"><defs><style>.cls-1{fill:#ef0696;}</style></defs><title>dog</title><path class="cls-1" d="M264.56,375.58c-50,0-90.72-40.92-90.73-91.25l0-138.27A9.55,9.55,0,0,1,190.73,140c.09.11.18.23.26.35l32.74,49.87,81.57,0L338,140.29l.25-.35A9.54,9.54,0,0,1,355.21,146l0,138.26C355.26,334.61,314.58,375.57,264.56,375.58ZM183.4,144.7a1.41,1.41,0,0,0-.48.09,1.26,1.26,0,0,0-.88,1.27l0,138.27c0,45.78,37,83,82.48,83s82.45-37.26,82.44-83L347,146a1.26,1.26,0,0,0-.88-1.27,1.2,1.2,0,0,0-1.33.29L311,196.56a4.11,4.11,0,0,1-3.44,1.86l-86,0a4.13,4.13,0,0,1-3.45-1.86l-33.81-51.5A1.19,1.19,0,0,0,183.4,144.7Z"/><path class="cls-1" d="M301.64,264.25a16.53,16.53,0,0,1-16.5-16.49,4.13,4.13,0,0,1,8.25,0,8.25,8.25,0,0,0,16.49,0,4.13,4.13,0,1,1,8.25,0A16.51,16.51,0,0,1,301.64,264.25Z"/><path class="cls-1" d="M227.42,264.27a16.51,16.51,0,0,1-16.49-16.49,4.12,4.12,0,1,1,8.24,0,8.25,8.25,0,0,0,16.5,0,4.12,4.12,0,0,1,8.24,0A16.51,16.51,0,0,1,227.42,264.27Z"/><path class="cls-1" d="M266.57,301.77l19.33-15.15a3.29,3.29,0,0,0-2-5.87H245.2a3.28,3.28,0,0,0-2,5.87l19.34,15.15A3.27,3.27,0,0,0,266.57,301.77Z"/><path class="cls-1" d="M264.55,322a4.12,4.12,0,0,1-4.13-4.12V301.37a4.13,4.13,0,1,1,8.25,0v16.49A4.12,4.12,0,0,1,264.55,322Z"/><path class="cls-1" d="M373.81,313.71h-.21l-81-8.23a2.06,2.06,0,0,1,.42-4.1l81,8.23a2.06,2.06,0,0,1-.21,4.11Z"/><path class="cls-1" d="M354.58,338.45a2.27,2.27,0,0,1-.72-.12L286.51,313.6a2.06,2.06,0,0,1,1.42-3.87l67.35,24.73a2.06,2.06,0,0,1-.7,4Z"/><path class="cls-1" d="M155.28,313.76a2.06,2.06,0,0,1-.21-4.11l81-8.26a2,2,0,0,1,2.25,1.84,2.06,2.06,0,0,1-1.84,2.26l-81,8.26Z"/><path class="cls-1" d="M174.53,338.5a2.06,2.06,0,0,1-.71-4l67.34-24.76a2.06,2.06,0,0,1,1.42,3.87l-67.34,24.76A1.94,1.94,0,0,1,174.53,338.5Z"/></svg>