<svg id="Layer_1" data-name="Layer 1" xmlns="http://www.w3.org/2000/svg" viewBox="0 0 512 512"><defs><style>.cls-1{fill:#ef0696;}</style></defs><title>dog</title><path class="cls-1" d="M301.55,184.56H191.27a4.13,4.13,0,0,1,0-8.26H301.55a4.13,4.13,0,0,1,0,8.26Z"/><path class="cls-1" d="M248.5,382.78a97.16,97.16,0,0,1-97.05-97V208.23a4.13,4.13,0,1,1,8.26,0v77.51a88.79,88.79,0,0,0,177.58,0V209.33a4.13,4.13,0,0,1,8.26,0v76.41A97.15,97.15,0,0,1,248.5,382.78Z"/><path class="cls-1" d="M250.57,320.75l22.68-25.85a4.28,4.28,0,0,0-3.22-7.1H231.11a4.28,4.28,0,0,0-3.22,7.1Z"/><path class="cls-1" d="M366.2,238.24a4.09,4.09,0,0,1-2.92-1.21l-33-33a4.13,4.13,0,1,1,5.84-5.84l26,26v-52H323.43a19.2,19.2,0,0,0-19.18,19.18v9.73a4.13,4.13,0,1,1-8.26,0v-9.73a27.47,27.47,0,0,1,27.44-27.44H366.2a4.13,4.13,0,0,1,4.13,4.13v66.07a4.12,4.12,0,0,1-4.13,4.13Z"/><path class="cls-1" d="M126.68,238.24a4.12,4.12,0,0,1-4.13-4.13V168a4.12,4.12,0,0,1,4.13-4.13h42.76a27.47,27.47,0,0,1,27.44,27.44v9.73a4.13,4.13,0,1,1-8.26,0v-9.73a19.2,19.2,0,0,0-19.18-19.18H130.8v52l26-26a4.13,4.13,0,1,1,5.84,5.85l-33,33A4.09,4.09,0,0,1,126.68,238.24Z"/><path class="cls-1" d="M225.79,345.62a28.94,28.94,0,0,1-28.91-28.91,4.13,4.13,0,0,1,8.26,0,20.65,20.65,0,0,0,41.3,0,4.13,4.13,0,0,1,8.26,0A28.94,28.94,0,0,1,225.79,345.62Z"/><path class="cls-1" d="M275.35,345.62a28.94,28.94,0,0,1-28.91-28.91,4.13,4.13,0,0,1,8.26,0,20.65,20.65,0,1,0,41.29,0,4.13,4.13,0,1,1,8.26,0A28.94,28.94,0,0,1,275.35,345.62Z"/><path class="cls-1" d="M213.4,283.67a28.91,28.91,0,1,1,28.91-28.91A28.94,28.94,0,0,1,213.4,283.67Zm0-49.56a20.65,20.65,0,1,0,20.65,20.65A20.68,20.68,0,0,0,213.4,234.11Z"/><path class="cls-1" d="M218,247.92a8.26,8.26,0,1,0,2.23,11.47A8.25,8.25,0,0,0,218,247.92Z"/><path class="cls-1" d="M292.37,247.92a8.26,8.26,0,1,0,2.23,11.46A8.26,8.26,0,0,0,292.37,247.92Z"/></svg>