<svg id="Layer_1" data-name="Layer 1" xmlns="http://www.w3.org/2000/svg" viewBox="0 0 512 512"><defs><style>.cls-1{fill:#ef0696;}</style></defs><title>dog</title><path class="cls-1" d="M340.12,182.1l.82-.16c7.61-1.58,12.68-3.48,12.68-7.65,0-4-4.87-5.76-9.62-7a153.63,153.63,0,0,0-19.95-3.17c-17.29-1.85-40.25-2.86-64.66-2.86s-47.37,1-64.66,2.86a153.63,153.63,0,0,0-19.95,3.17c-4.75,1.2-9.62,3-9.62,7s4.87,5.75,9.62,7c1.17.3,2.47.58,3.88.86a106.27,106.27,0,0,0-26.19,70.09c0,1,0,2.08,0,3.11a3.29,3.29,0,0,0,3.27,3.18h.1a3.27,3.27,0,0,0,3.18-3.37c0-1-.05-2-.05-2.92a99.8,99.8,0,0,1,27.31-68.81l1.64.22h0c2.1.28,4.35.54,6.74.8,16,1.71,36.83,2.71,59.18,2.85h9.43c1.52,0,3,0,4.55,0H269l1.69,0,1,0,1.8,0,1.39,0,1.39,0,1.69,0,1.08,0,1.57,0,1.18,0,1.48,0,1.25,0,1.71-.06,1,0,1.79-.07.89,0,2-.08.66,0,2-.09.65,0,2.5-.11h.06c1.73-.08,3.44-.17,5.11-.27a3.27,3.27,0,1,0-.38-6.53h-.22l-2.3.13-.58,0-1.95.1-.51,0-2,.1-.76,0-1.83.08-1.06,0-1.56.06-1.44.05-1.2.05-1.6,0-1.09,0-1.52.05-1.18,0-1.87,0-.85,0-2.07.05h-.68l-2,0h-.73l-1.43,0-1.36,0h-1l-1.81,0H265l-5.63,0H253.7c-27.15-.18-52.29-1.67-68.09-4.05h0a78.58,78.58,0,0,1-11.38-2.38c3.36-1.05,10.39-2.6,24.77-4,16.6-1.59,38.05-2.47,60.39-2.47s43.8.88,60.39,2.47c14.39,1.37,21.42,2.92,24.78,4a78.19,78.19,0,0,1-11.3,2.36h-.09c-4.83.73-10.56,1.38-17.07,1.94l-.31,0-1.14.1-.61.05-.86.07h-.05a3.28,3.28,0,0,0,.52,6.53l2.43-.2.8-.07,1.47-.13,1.06-.1,1-.1,1.3-.12.23,0c1.86-.18,3.65-.38,5.36-.58h0c1.78-.21,3.48-.43,5.09-.65a100.35,100.35,0,0,1-3.21,140.88,65,65,0,0,1-45.53,18.31H235.07a65,65,0,0,1-45.53-18.31,100.62,100.62,0,0,1-29.65-58.74,3.27,3.27,0,0,0-6.48.86A107.19,107.19,0,0,0,185,329a71.53,71.53,0,0,0,50.09,20.15h48.65A71.5,71.5,0,0,0,333.8,329a106.89,106.89,0,0,0,6.32-146.86Z"/><path class="cls-1" d="M308.08,289.46l7.25-26.25a3.27,3.27,0,0,0-5.23-3.4l-18.37,15.08c-5.08-4.6-12.58-8.11-21.24-9.91l-1.32-8a3.26,3.26,0,0,0-4.84-2.31l-17.55,10a54.36,54.36,0,0,0-18.69,7.7c-7.48,4.85-12.76,11-13.35,16.23a.78.78,0,0,0,0,.16,5.12,5.12,0,0,0,0,.56c0,.07,0,.14,0,.21h0v0c0,7.78,12.37,18.68,26.47,23.31a2.19,2.19,0,0,0,.49.12,50.71,50.71,0,0,0,5.05,1.35l17.64,10a3.22,3.22,0,0,0,1.62.43,3.34,3.34,0,0,0,1.41-.32,3.27,3.27,0,0,0,1.81-2.42l1.32-8c8.66-1.8,16.16-5.31,21.24-9.91l18.37,15.08a3.27,3.27,0,0,0,5.23-3.4Zm-67,16.39a47.64,47.64,0,0,1-12.54-7.09l-.85-.7-.35-.3-.36-.32-.5-.44,0,0c-.58-.53-1.11-1.06-1.6-1.58l-.22-.22-.26-.3c-2.24-2.49-3.16-4.46-3.17-5.36,0-.05,0-.1,0-.14a1.36,1.36,0,0,1,0-.2c0-.08,0-.17.05-.27a.44.44,0,0,1,0-.1c0-.1.05-.2.08-.31l0-.09c0-.11.08-.22.13-.34l0-.07a11,11,0,0,1,.93-1.72.83.83,0,0,0,.08-.12c.09-.14.19-.27.29-.41l.09-.13.34-.44,0-.06c3-3.9,9.22-8.86,17.68-12a27.28,27.28,0,0,1,.07,32.76Zm52.47-8.72a3.28,3.28,0,0,0-4.55.39c-4.37,5-12.37,8.85-21.95,10.46a3.27,3.27,0,0,0-2.68,2.7l-.92,5.62-13.31-7.55a3.23,3.23,0,0,0-1.5-.72l-1-.21a33.82,33.82,0,0,0,0-36.68l1-.2a3.45,3.45,0,0,0,1.3-.56l13.57-7.71.92,5.63a3.28,3.28,0,0,0,2.68,2.7c9.58,1.61,17.58,5.43,21.95,10.46a3.28,3.28,0,0,0,4.55.39l12.7-10.43-4.75,17.17a3.42,3.42,0,0,0,0,1.74l4.75,17.23Z"/><path class="cls-1" d="M239.59,277.06h-1.88a3.27,3.27,0,1,0,0,6.54h1.88a3.27,3.27,0,1,0,0-6.54Z"/><path class="cls-1" d="M202,260.9a11.33,11.33,0,1,0,11.32,11.32A11.34,11.34,0,0,0,202,260.9Zm0,16.1a4.78,4.78,0,1,1,4.78-4.78A4.78,4.78,0,0,1,202,277Z"/><path class="cls-1" d="M194.45,228.6a12,12,0,1,0,12.05,12.05A12.06,12.06,0,0,0,194.45,228.6Zm0,17.54a5.5,5.5,0,1,1,5.5-5.49A5.49,5.49,0,0,1,194.45,246.14Z"/><path class="cls-1" d="M238.65,219.83a12,12,0,1,0,12,12A12.06,12.06,0,0,0,238.65,219.83Zm0,17.54a5.5,5.5,0,1,1,5.5-5.49A5.5,5.5,0,0,1,238.65,237.37Z"/></svg>