<svg id="Layer_1" data-name="Layer 1" xmlns="http://www.w3.org/2000/svg" viewBox="0 0 512 512"><defs><style>.cls-1{fill:#ef0696;}</style></defs><title>dog</title><path class="cls-1" d="M296.46,266.12a30.57,30.57,0,0,0-25.25-10.88c-11.77.54-20.29,7-28.53,13.32-3,2.31-6.16,4.7-9.36,6.7a3.21,3.21,0,0,0,3.4,5.44c3.45-2.16,6.7-4.64,9.85-7,7.8-5.95,15.17-11.57,24.94-12a24.35,24.35,0,0,1,20.1,8.67c6.92,8,10,20.39,7.87,31.63-4.56,23.94-29.38,36.86-50.42,36.86-37,0-56.43-21.51-64.71-34.34A7.64,7.64,0,0,1,185.4,295c2-2,4.12-2.07,7.92-2a39,39,0,0,0,4.66-.11,102.11,102.11,0,0,0,26.77-6.34,3.21,3.21,0,1,0-2.31-6,96,96,0,0,1-25.1,5.94,36,36,0,0,1-3.91.08c-4-.07-8.48-.15-12.53,3.85A14.08,14.08,0,0,0,179,308a82.81,82.81,0,0,0,23,23.53c13.53,9.12,29.38,13.75,47.09,13.75a63.52,63.52,0,0,0,35.76-11.08c11.34-7.83,18.59-18.55,21-31C308.27,290.05,304.61,275.52,296.46,266.12Z"/><path class="cls-1" d="M301.9,188.45l-1.72-7.28a3.58,3.58,0,1,0-7,1.64l1.72,7.28a3.62,3.62,0,0,0,4.3,2.66A3.58,3.58,0,0,0,301.9,188.45Z"/><path class="cls-1" d="M351.84,194.68c-.59-.17-1.18-.32-1.77-.44,3-4.23,5.95-10.57,4.22-17.62a8.34,8.34,0,0,0-12.77-4.7,18.79,18.79,0,0,1-10.42,3.7,13.81,13.81,0,0,1-1.93-.14,65.09,65.09,0,0,0-22.11-20.66,64,64,0,0,0-31.45-8.29h-.84a64.15,64.15,0,0,0-50.83,102.14,8.24,8.24,0,0,1-.44,10.39,13.22,13.22,0,0,1-10.29,4.21c-7.28,0-16.74-3.86-28.13-11.48a19.89,19.89,0,0,0-30.79,13.6c-2.72,18.24-4.29,52.3,15.76,75.57,14,16.25,36.08,24.5,65.59,24.5h29.5c18.72,0,35-3.71,48.45-11a67.08,67.08,0,0,0,28-28.26c12.34-24.17,8.79-54.67-9.26-79.62a5,5,0,0,1-.28-5.38,63.8,63.8,0,0,0,6.78-19.61,33.76,33.76,0,0,0,6.11-3.58,18.84,18.84,0,0,1,6.46-3.13,10.48,10.48,0,0,0,.44-20.2Zm-25.43,43.46a11.53,11.53,0,0,0,.73,12.2c16.63,23,20,50.93,8.73,73a59.79,59.79,0,0,1-25.35,25.53c-12.48,6.79-27.74,10.23-45.38,10.23h-29.5c-27.56,0-48-7.49-60.73-22.27-7.89-9.16-20.23-30.48-14.27-70.43A13.41,13.41,0,0,1,174,254.82a13.56,13.56,0,0,1,7.55,2.31c12.46,8.34,23.12,12.56,31.69,12.56a19.64,19.64,0,0,0,15.06-6.32,14.71,14.71,0,0,0,.84-18.5,57.7,57.7,0,1,1,94.95-65.49v0a54.08,54.08,0,0,1-.47,9.26c-.64,4.78-2.22,11.28-6.09,15.06a10.85,10.85,0,0,0-2.83,11.85c2.27,5.59,8.53,8.27,14.25,8.27a20.94,20.94,0,0,0,3-.21A57.33,57.33,0,0,1,326.41,238.14Zm23.38-29.47a25.72,25.72,0,0,0-8.64,4.16,25.71,25.71,0,0,1-6.69,3.6c-3.49,1.2-7.64,1.56-11-.3a6.33,6.33,0,0,1-2.87-3,4.34,4.34,0,0,1,1.37-4.83h0c4-3.87,6.12-9.38,7.24-14.71v0A59,59,0,0,0,330.5,182a24.54,24.54,0,0,0,14.7-4.86,1.85,1.85,0,0,1,2.86,1c2.1,8.57-6.84,16.56-6.92,16.64a3.2,3.2,0,0,0,2.54,5.59,15.3,15.3,0,0,1,6.34.45C353.92,202,353.63,207.68,349.79,208.67Z"/></svg>