<?xml version="1.0" encoding="utf-8"?>
<!-- Generator: Adobe Illustrator 23.0.3, SVG Export Plug-In . SVG Version: 6.00 Build 0)  -->
<svg version="1.1" id="Layer_1" xmlns="http://www.w3.org/2000/svg" xmlns:xlink="http://www.w3.org/1999/xlink" x="0px" y="0px"
	 viewBox="0 0 419 380" style="enable-background:new 0 0 419 380;" xml:space="preserve">
<style type="text/css">
	.st0{fill:#CCCCCC;}
	.st1{fill:none;stroke:#CCCCCC;stroke-width:4;stroke-miterlimit:10;}
	.st2{fill:url(#SVGID_1_);}
	.st3{fill:url(#SVGID_2_);}
	.st4{fill:url(#SVGID_3_);}
	.st5{fill:url(#SVGID_4_);}
	.st6{fill:url(#SVGID_5_);}
	.st7{fill:url(#SVGID_6_);}
	.st8{fill:url(#SVGID_7_);}
	.st9{fill:url(#SVGID_8_);}
	.st10{fill:none;stroke:url(#SVGID_9_);stroke-width:4;stroke-miterlimit:10;}
	.st11{fill:none;stroke:url(#SVGID_10_);stroke-width:4;stroke-miterlimit:10;}
	.st12{fill:none;stroke:url(#SVGID_11_);stroke-width:4;stroke-miterlimit:10;}
	.st13{fill:none;stroke:url(#SVGID_12_);stroke-width:4;stroke-miterlimit:10;}
</style>
<g>
	<linearGradient id="SVGID_1_" gradientUnits="userSpaceOnUse" x1="144.459" y1="200.5936" x2="220.6411" y2="200.5936">
		<stop  offset="1.060230e-06" style="stop-color:#D4145A"/>
		<stop  offset="1" style="stop-color:#FF00FF"/>
	</linearGradient>
	<path class="st2" d="M182.55,140.62c-21,0-38.09,17.09-38.09,38.09c0,19.32,14.47,35.32,33.13,37.76v17.83h-11.92
		c-2.74,0-4.95,2.22-4.95,4.95c0,2.74,2.22,4.95,4.95,4.95h11.92v11.41c0,2.74,2.22,4.95,4.95,4.95c2.74,0,4.95-2.22,4.95-4.95
		v-11.41h12.53c2.74,0,4.95-2.22,4.95-4.95c0-2.74-2.22-4.95-4.95-4.95H187.5v-17.83c18.67-2.44,33.14-18.44,33.14-37.76
		C220.64,157.7,203.55,140.62,182.55,140.62z M182.55,206.89c-15.54,0-28.18-12.64-28.18-28.18s12.64-28.18,28.18-28.18
		c15.54,0,28.18,12.64,28.18,28.18S198.09,206.89,182.55,206.89z"/>
	<linearGradient id="SVGID_2_" gradientUnits="userSpaceOnUse" x1="193.3705" y1="200.5936" x2="269.5526" y2="200.5936">
		<stop  offset="1.060230e-06" style="stop-color:#D4145A"/>
		<stop  offset="1" style="stop-color:#FF00FF"/>
	</linearGradient>
	<path class="st3" d="M231.46,140.62c-21,0-38.09,17.09-38.09,38.09c0,19.32,14.47,35.32,33.13,37.76v17.83h-11.92
		c-2.74,0-4.95,2.22-4.95,4.95c0,2.74,2.22,4.95,4.95,4.95h11.92v11.41c0,2.74,2.22,4.95,4.95,4.95c2.74,0,4.95-2.22,4.95-4.95
		v-11.41h12.53c2.74,0,4.95-2.22,4.95-4.95c0-2.74-2.22-4.95-4.95-4.95h-12.53v-17.83c18.67-2.44,33.14-18.44,33.14-37.76
		C269.55,157.7,252.46,140.62,231.46,140.62z M231.46,206.89c-15.54,0-28.18-12.64-28.18-28.18s12.64-28.18,28.18-28.18
		c15.54,0,28.18,12.64,28.18,28.18S247,206.89,231.46,206.89z"/>
</g>
<linearGradient id="SVGID_3_" gradientUnits="userSpaceOnUse" x1="74.5994" y1="200.5936" x2="339.4122" y2="200.5936">
	<stop  offset="1.060230e-06" style="stop-color:#D4145A"/>
	<stop  offset="1" style="stop-color:#FF00FF"/>
</linearGradient>
<circle style="fill:none;stroke:url(#SVGID_3_);stroke-width:4;stroke-miterlimit:10;" cx="207.01" cy="200.59" r="130.41"/>
</svg>
