<?xml version="1.0" encoding="utf-8"?>
<!-- Generator: Adobe Illustrator 23.0.3, SVG Export Plug-In . SVG Version: 6.00 Build 0)  -->
<svg version="1.1" id="Layer_1" xmlns="http://www.w3.org/2000/svg" xmlns:xlink="http://www.w3.org/1999/xlink" x="0px" y="0px"
	 viewBox="0 0 419 380" style="enable-background:new 0 0 419 380;" xml:space="preserve">
<style type="text/css">
	.st0{fill:#CCCCCC;}
	.st1{fill:none;stroke:#CCCCCC;stroke-width:4;stroke-miterlimit:10;}
	.st2{fill:url(#SVGID_1_);}
	.st3{fill:url(#SVGID_2_);}
	.st4{fill:url(#SVGID_3_);}
	.st5{fill:url(#SVGID_4_);}
	.st6{fill:url(#SVGID_5_);}
	.st7{fill:url(#SVGID_6_);}
	.st8{fill:url(#SVGID_7_);}
	.st9{fill:url(#SVGID_8_);}
	.st10{fill:none;stroke:url(#SVGID_9_);stroke-width:4;stroke-miterlimit:10;}
	.st11{fill:none;stroke:url(#SVGID_10_);stroke-width:4;stroke-miterlimit:10;}
	.st12{fill:none;stroke:url(#SVGID_11_);stroke-width:4;stroke-miterlimit:10;}
	.st13{fill:none;stroke:url(#SVGID_12_);stroke-width:4;stroke-miterlimit:10;}
</style>
<g>
	<linearGradient id="SVGID_1_" gradientUnits="userSpaceOnUse" x1="178.2" y1="213.3257" x2="254.3821" y2="213.3257">
		<stop  offset="1.060230e-06" style="stop-color:#D4145A"/>
		<stop  offset="1" style="stop-color:#FF00FF"/>
	</linearGradient>
	<path class="st2" d="M216.29,153.35c-21,0-38.09,17.09-38.09,38.09c0,19.32,14.47,35.32,33.13,37.76v17.83h-11.92
		c-2.74,0-4.95,2.22-4.95,4.95c0,2.74,2.22,4.95,4.95,4.95h11.92v11.41c0,2.74,2.22,4.95,4.95,4.95c2.74,0,4.95-2.22,4.95-4.95
		v-11.41h12.53c2.74,0,4.95-2.22,4.95-4.95c0-2.74-2.22-4.95-4.95-4.95h-12.53V229.2c18.67-2.44,33.14-18.44,33.14-37.76
		C254.38,170.44,237.29,153.35,216.29,153.35z M216.29,219.62c-15.54,0-28.18-12.64-28.18-28.18s12.64-28.18,28.18-28.18
		c15.54,0,28.18,12.64,28.18,28.18S231.83,219.62,216.29,219.62z"/>
	<linearGradient id="SVGID_2_" gradientUnits="userSpaceOnUse" x1="178.2" y1="180.1259" x2="271.1759" y2="180.1259">
		<stop  offset="1.060230e-06" style="stop-color:#D4145A"/>
		<stop  offset="1" style="stop-color:#FF00FF"/>
	</linearGradient>
	<path class="st3" d="M271.08,135.5c-0.03-0.15-0.08-0.28-0.13-0.42c-0.05-0.17-0.09-0.34-0.16-0.5c-0.07-0.17-0.17-0.33-0.26-0.49
		c-0.06-0.12-0.12-0.25-0.19-0.36c-0.36-0.54-0.83-1.01-1.38-1.38c-0.11-0.07-0.23-0.12-0.35-0.19c-0.17-0.09-0.33-0.19-0.51-0.27
		c-0.16-0.06-0.32-0.1-0.48-0.15c-0.15-0.04-0.29-0.1-0.44-0.13c-0.32-0.06-0.65-0.1-0.97-0.1h-26.65c-2.74,0-4.95,2.22-4.95,4.95
		s2.22,4.95,4.95,4.95h14.69l-17.28,17.28c-5.96-3.88-13.07-6.14-20.69-6.14c-21,0-38.09,17.09-38.09,38.09s17.09,38.09,38.09,38.09
		c21,0,38.09-17.09,38.09-38.09c0-9.8-3.72-18.75-9.83-25.51l16.71-16.72v14.69c0,2.74,2.22,4.95,4.95,4.95
		c2.73,0,4.95-2.22,4.95-4.95v-26.65C271.18,136.14,271.14,135.82,271.08,135.5z M216.29,218.83c-15.54,0-28.18-12.64-28.18-28.18
		s12.64-28.18,28.18-28.18c15.54,0,28.18,12.64,28.18,28.18S231.83,218.83,216.29,218.83z"/>
</g>
<linearGradient id="SVGID_3_" gradientUnits="userSpaceOnUse" x1="92.2816" y1="202.4064" x2="357.0943" y2="202.4064">
	<stop  offset="1.060230e-06" style="stop-color:#D4145A"/>
	<stop  offset="1" style="stop-color:#FF00FF"/>
</linearGradient>
<circle style="fill:none;stroke:url(#SVGID_3_);stroke-width:4;stroke-miterlimit:10;" cx="224.69" cy="202.41" r="130.41"/>
</svg>
